<mxfile host="app.diagrams.net" agent="Mozilla/5.0 (Windows NT 10.0; Win64; x64) AppleWebKit/537.36 (KHTML, like Gecko) Chrome/131.0.0.0 Safari/537.36" version="25.0.3">
  <diagram name="หน้า-1" id="G-K4ZRIUyVHtj03wZpMy">
    <mxGraphModel dx="1050" dy="530" grid="1" gridSize="10" guides="1" tooltips="1" connect="1" arrows="1" fold="1" page="1" pageScale="1" pageWidth="827" pageHeight="1169" math="0" shadow="0">
      <root>
        <mxCell id="0" />
        <mxCell id="1" parent="0" />
        <mxCell id="djPmmu6G1E4qJbGtnXes-4" value="" style="edgeStyle=orthogonalEdgeStyle;rounded=0;orthogonalLoop=1;jettySize=auto;html=1;" edge="1" parent="1" source="djPmmu6G1E4qJbGtnXes-2" target="djPmmu6G1E4qJbGtnXes-3">
          <mxGeometry relative="1" as="geometry" />
        </mxCell>
        <mxCell id="djPmmu6G1E4qJbGtnXes-2" value="Start" style="ellipse;whiteSpace=wrap;html=1;" vertex="1" parent="1">
          <mxGeometry x="354" y="10" width="120" height="80" as="geometry" />
        </mxCell>
        <mxCell id="djPmmu6G1E4qJbGtnXes-6" value="" style="edgeStyle=orthogonalEdgeStyle;rounded=0;orthogonalLoop=1;jettySize=auto;html=1;" edge="1" parent="1" source="djPmmu6G1E4qJbGtnXes-3" target="djPmmu6G1E4qJbGtnXes-5">
          <mxGeometry relative="1" as="geometry" />
        </mxCell>
        <mxCell id="djPmmu6G1E4qJbGtnXes-3" value="Finding number in array" style="whiteSpace=wrap;html=1;" vertex="1" parent="1">
          <mxGeometry x="354" y="180" width="120" height="60" as="geometry" />
        </mxCell>
        <mxCell id="djPmmu6G1E4qJbGtnXes-8" value="" style="edgeStyle=orthogonalEdgeStyle;rounded=0;orthogonalLoop=1;jettySize=auto;html=1;" edge="1" parent="1" source="djPmmu6G1E4qJbGtnXes-5" target="djPmmu6G1E4qJbGtnXes-7">
          <mxGeometry relative="1" as="geometry" />
        </mxCell>
        <mxCell id="djPmmu6G1E4qJbGtnXes-5" value="Output number position in array" style="shape=parallelogram;perimeter=parallelogramPerimeter;whiteSpace=wrap;html=1;fixedSize=1;" vertex="1" parent="1">
          <mxGeometry x="354" y="320" width="120" height="60" as="geometry" />
        </mxCell>
        <mxCell id="djPmmu6G1E4qJbGtnXes-7" value="End" style="ellipse;whiteSpace=wrap;html=1;" vertex="1" parent="1">
          <mxGeometry x="354" y="460" width="120" height="80" as="geometry" />
        </mxCell>
      </root>
    </mxGraphModel>
  </diagram>
</mxfile>
